<svg xmlns="http://www.w3.org/2000/svg" viewBox="0 0 512 512"><path d="M256 74.733c-99.951 0-181.267 81.315-181.267 181.267S156.049 437.267 256 437.267 437.267 355.951 437.267 256 355.951 74.733 256 74.733z" fill="#ffcc03"/><path d="M256 74.733c-99.951 0-181.267 81.315-181.267 181.267S156.049 437.267 256 437.267V74.733z" fill="#ffe981"/><path d="M271 183.19c9.45 5.28 15.857 15.38 15.857 26.953 0 4.142 1.679 7.892 4.393 10.607s6.464 4.393 10.607 4.393c8.284 0 15-6.716 15-15 0-28.382-19.531-52.284-45.857-58.982v-4.106c0-8.284-6.716-15-15-15s-15 6.716-15 15v4.106c-26.326 6.699-45.857 30.601-45.857 58.982s19.531 52.284 45.857 58.982v59.685c-9.45-5.28-15.857-15.38-15.857-26.953 0-4.142-1.679-7.892-4.393-10.607s-6.464-4.393-10.607-4.393c-8.284 0-15 6.716-15 15 0 28.382 19.531 52.284 45.857 58.982v4.106c0 8.284 6.716 15 15 15s15-6.716 15-15v-4.106c26.326-6.699 45.857-30.601 45.857-58.982S297.326 249.574 271 242.875V183.19zm15.857 118.667c0 11.573-6.407 21.672-15.857 26.953v-53.906c9.45 5.281 15.857 15.381 15.857 26.953zm-61.714-91.714c0-11.573 6.407-21.672 15.857-26.953v53.906c-9.45-5.281-15.857-15.381-15.857-26.953z" fill="#fa7437"/><path d="M256 132.054c-8.284 0-15 6.716-15 15v4.106c-26.326 6.699-45.857 30.601-45.857 58.982s19.531 52.284 45.857 58.982v59.685c-9.45-5.28-15.857-15.38-15.857-26.953 0-4.142-1.679-7.892-4.393-10.607s-6.464-4.393-10.607-4.393c-8.284 0-15 6.716-15 15 0 28.382 19.531 52.284 45.857 58.982v4.106c0 8.284 6.716 15 15 15v-247.89zm-15 105.041c-9.45-5.28-15.857-15.38-15.857-26.953S231.55 188.47 241 183.19v53.905z" fill="#f9b33b"/><path d="M497.584 130.626c-5.852-2.26-12.246-.596-16.303 3.697-20.266-37.484-49.564-69.36-85.489-92.818C354.21 14.352 305.871 0 256 0 187.62 0 123.333 26.629 74.98 74.98 26.629 123.333 0 187.62 0 256c0 8.284 6.716 15 15 15s15-6.716 15-15C30 131.383 131.383 30 256 30c82.699 0 158.924 45.67 198.333 117.568-5.772.712-10.847 4.763-12.573 10.702-2.312 7.956 2.263 16.278 10.218 18.591l26.197 7.613c1.394.405 2.802.599 4.189.599 6.056 0 11.709-3.69 13.99-9.602l9.823-25.45c2.984-7.728-.864-16.412-8.593-19.395z" fill="#5ad65b"/><path d="M256 0C187.62 0 123.333 26.629 74.98 74.98 26.629 123.333 0 187.62 0 256c0 8.284 6.716 15 15 15s15-6.716 15-15C30 131.383 131.383 30 256 30V0z" fill="#b9f05e"/><path d="M497 241c-8.284 0-15 6.716-15 15 0 124.617-101.383 226-226 226A225.79 225.79 0 0 1 59.852 368.368a14.947 14.947 0 0 0 9.111-6.801c4.263-7.103 1.961-16.317-5.143-20.58l-23.391-14.038c-6.677-4.008-15.312-2.239-19.874 4.072L4.57 353.128c-4.854 6.713-3.347 16.09 3.366 20.944a14.931 14.931 0 0 0 8.777 2.846c4.098 0 8.142-1.679 11.053-4.853A255.754 255.754 0 0 0 256 512c68.38 0 132.667-26.629 181.02-74.98C485.371 388.667 512 324.38 512 256c0-8.284-6.716-15-15-15z" fill="#5ad65b"/><path d="M256 482A225.79 225.79 0 0 1 59.852 368.368a14.947 14.947 0 0 0 9.111-6.801c4.263-7.103 1.961-16.317-5.143-20.58l-23.391-14.038c-6.677-4.008-15.312-2.239-19.874 4.072L4.57 353.128c-4.854 6.713-3.347 16.09 3.366 20.944a14.931 14.931 0 0 0 8.777 2.846c4.098 0 8.142-1.679 11.053-4.853A255.754 255.754 0 0 0 256 512v-30z" fill="#b9f05e"/></svg>