<svg version="1" xmlns="http://www.w3.org/2000/svg" width="933.333" height="933.333" viewBox="0 0 700.000000 700.000000"><path d="M330.8.5c-.1.1-4.5.6-9.6.9-5.1.4-10.1.9-11 1.1-.9.1-4.4.6-7.7 1-8 .9-28.8 5.1-40 8-29.6 7.8-54.9 18.1-85.5 34.8-10.2 5.5-34 21.8-46.8 32-13.1 10.5-36.4 32.9-46.8 45.2-19.2 22.7-36.2 48.8-49.3 75.7-3.9 8.1-7.1 15.1-7.1 15.6s-.8 2.6-1.9 4.8c-5 10.5-16.3 48.1-18.5 61.4-.3 1.9-.7 4.4-1 5.5-.4 2.3-2.3 14.3-3.1 19.8-2 14.5-2.7 56.3-1.2 72 8.8 91.4 49.6 172.1 117.3 232.2 25.9 22.9 48.4 38.2 79.4 53.6 12.1 6 38.6 16.9 41.1 16.9.8 0 1.9.4 2.4.9 2.8 2.5 46.5 13 61 14.6 2.8.3 6.1.8 7.5 1 15.1 2.6 63.5 2.6 82 .1 1.9-.3 5.5-.8 8-1.1 18.6-2.4 39.6-7.4 60-14.1 12.1-4 21.1-7.4 22.5-8.6.5-.4 1.5-.8 2.2-.8 1.7 0 25.1-11.3 34.8-16.8 4.4-2.5 8.9-5 10-5.6 1.1-.7 6.6-4.2 12.3-7.9 40.8-27.1 79.3-66.5 104.1-106.7 23.7-38.4 39.3-77.9 47.5-120.5 1.4-7.2 2.8-15.3 3.1-18 .4-2.8.8-6.1 1-7.4 2.6-16 2.6-65.1 0-82.6-.2-1.7-.6-5-1-7.5-5.7-46.2-24.6-97.1-52-140-5.3-8.3-15.8-23.1-19.1-27-1.2-1.4-5-5.9-8.4-10-10.7-13-27.8-29.9-43-42.6-34.5-28.8-74.8-50.8-117.5-64-6-1.9-12.5-3.9-14.3-4.5-1.8-.6-4.4-1.3-5.9-1.5-1.5-.3-6.3-1.3-10.8-2.4-4.4-1-10-2.1-12.5-2.5-2.5-.4-5.4-.9-6.5-1.1-1.1-.2-3.8-.6-6-.9-2.2-.3-5.8-.7-8-1-2.2-.3-6.2-.8-9-1.1-5.7-.6-52.1-1.4-52.7-.9zm51.7 41.8c1.7.3 6.7 1.1 11.2 1.7 4.5.6 9.2 1.3 10.5 1.6 1.3.2 3.9.7 5.8 1 1.9.3 8.9 1.9 15.5 3.5 100.2 24.6 182.9 100.4 216.8 198.4 3.2 9.3 9.9 34.1 11.1 41 4.6 27 5.1 33.3 5.1 60 0 26.9-.9 37-5.6 61C628.5 535.3 530.4 631.9 405 654.4c-26.5 4.8-66.2 5.7-93.5 2.1-39.8-5.2-78.8-18.4-114.5-38.6-6.2-3.5-30.5-19.5-32.3-21.3-.7-.7-3-2.5-5.2-4.1-2.2-1.7-4.5-3.5-5.1-4-.6-.6-4.2-3.7-7.9-7-59.5-52.2-96.3-124.4-104.2-204-1.6-15.7-.8-58.2 1.2-68 .2-1.1.6-3.8.9-6 .5-3.6 2.5-14.7 4.1-22.9.3-1.6.8-3.3 1-3.6.2-.4.6-2 .9-3.6.3-1.6 1.7-6.7 3.1-11.3C85.6 155 174 72.8 283 48.7c17.5-3.9 23.7-4.9 37.5-6.2 3.9-.4 7.2-.9 7.4-1.1.5-.5 51.2.4 54.6.9z"/><path d="M334.9 82.4c-.2.2-4.2.6-8.9 1-8 .6-11 1-17 2.1-1.4.3-4.3.8-6.5 1.1-4.9.7-25.9 5.9-32.3 8-35.4 11.6-69.3 30.6-96.2 53.9-12.2 10.6-31.7 31.9-41.5 45.4-7.9 10.9-24.5 38.7-24.5 41 0 .5-1.1 2.9-2.5 5.5-3.5 6.7-11.2 28.3-14.6 41.1-6.6 25.2-8.9 44.7-8.3 72 .2 11 .6 21.5.9 23.3.2 1.8 1.1 7.7 2 13 2 13.4 2.2 14.5 5.1 25.2 14.6 54.2 42.7 99.2 85.4 137 18.3 16.2 47 34.2 70 43.9 4.1 1.8 8.4 3.6 9.5 4.1 7 3.2 31.3 10.3 43 12.6 19.1 3.8 31.2 4.9 52.5 4.9 18.6 0 26.8-.6 42-3 68.4-10.8 130.4-49.1 172.6-106.5 28.6-38.8 46.8-86.6 51.1-134 1.5-16.4.8-49.5-1.2-62-2.7-15.8-3.7-20.9-6.6-31.8-9.1-34.2-24.3-65.2-45.8-93.2-14.7-19.2-34.5-38.6-54.1-53.2-30.3-22.4-71.8-40.6-106.5-46.8-3.3-.5-7.1-1.2-8.4-1.5-1.3-.2-4.9-.7-8-1.1-3.1-.3-6-.9-6.4-1.1-1-.6-44.2-1.4-44.8-.9zm39.6 41.7c46.3 5.7 84.9 21.9 120 50.2 40.9 33 71.7 86.4 79.4 137.2.6 3.8 1.3 8.6 1.7 10.5 1.3 7.2 1.2 44.4-.2 54.5-3.6 26.8-10.5 49.8-21.9 73-5.9 12.1-16.1 29.3-20.7 35-.5.5-3.3 4.1-6.4 8-20.8 26.1-49.7 48.9-80.7 63.5-18.9 8.9-42.8 16.1-61.7 18.6-2.5.3-7.2.9-10.5 1.4-6.5.9-41.4.6-48-.4-2.2-.3-5.6-.8-7.5-1.1-20.7-3-42.9-10.1-64.5-20.5-16.6-8-30.7-17.2-47.8-30.9-5.5-4.4-25.2-24.5-30.9-31.6-13.4-16.5-26.9-38.7-34.3-56.5-6.6-15.9-13.2-39.6-15.1-53.9-.2-2-.8-6.5-1.3-10.1-1-6.9-.7-43.1.3-49 .4-1.9 1.1-6.7 1.7-10.5 1.5-9.2 1.4-8.8 3.8-18.1 7-27.1 21.4-57.2 38-78.9 18-23.7 39.6-43.2 64.6-58.5 21.7-13.4 57.3-26.6 79.2-29.6 2.6-.3 5-.8 5.3-.9.3-.2 4.2-.7 8.5-1 4.4-.4 8.1-.8 8.3-1 .7-.7 34.1-.2 40.7.6z"/><path d="M344.7 165.4c-6 2.2-8.7 4.7-11.7 11.1-1.6 3.3-2 6.2-2 16.1v12.2l-17.7.5c-19.3.5-22 1.1-33.3 6.5-12.4 6.1-25.3 20.3-29.9 33.2-3.7 10.1-4 14.2-3.7 44.5.2 28.3.3 30.4 2.5 36.5 6.8 19.5 21.9 34.6 40.1 40 9.1 2.8 9.7 2.8 26.8 2.9l15.2.1v85.2l-14.7-.4c-16-.4-18.4-1.1-23.5-6.5-3.1-3.2-5.8-10.1-5.8-14.5 0-5.4-3.9-12.7-8.6-15.9-8.6-5.9-19.3-4.7-26.6 2.9-4.6 4.8-5.7 8.5-5.4 17.5.6 14.7 6.5 27.5 18.1 39.2 13.8 13.9 26.8 18.5 52.5 18.5h14l.1 12.2c.1 13.3.9 17 5.1 21.7 8.2 9.1 22.4 9 30.5-.2 4.2-4.8 5-8.2 5.2-21.8.1-6.2.3-11.4.4-11.6.2-.1 6.2-.3 13.4-.4 23.7-.2 36.2-4.8 49.3-17.9 8.5-8.4 12-13.8 15.8-24.3 2.5-7.1 2.6-7.7 2.8-37.7.3-33 0-37.2-4.2-47.6-7.1-18-20.6-30.6-39.1-36.4-5.4-1.8-10-2.3-22.3-2.6-8.4-.3-15.5-.6-15.7-.7-.3-.3-.4-29.3-.4-61l.1-20.8 12.1.2c8.2.1 13.3.6 16 1.7 7.2 2.8 12.9 11.3 12.9 19.3 0 13.4 14.7 23.3 27.4 18.5 9.2-3.5 13.7-11.2 13.1-22.5-1.2-24.5-18.1-46.6-42-55-6-2-15.1-3.1-27.2-3.1H372v-8.8c-.1-17.3-.6-19.4-6-25.5-5-5.8-14-8-21.3-5.3zm-13.9 121.7l-.3 41.2-13.5-.2c-12.2-.1-14-.4-18.5-2.6-5.3-2.6-8.9-6.9-10.5-12.6-.6-1.9-1-13.8-.9-26.4.1-25.6.6-28.7 6.2-34.2 4.9-5 9.3-6.1 24.4-6.2l13.3-.2-.2 41.2zm69.1 83.6c4.7 2 8.7 5.7 11.1 10.7 1.8 3.8 1.9 6.3 1.9 29.6 0 28.1-.5 30.9-5.9 36.5-4.9 5-9.2 6.2-22.9 6.4l-12.1.2v-5.3c-.1-6.7-.1-65.2 0-73.6v-6.3l12.2.2c8 .1 13.3.6 15.7 1.6z"/></svg>